<svg xmlns="http://www.w3.org/2000/svg" width="30" height="30" viewBox="0 0 30 30">
  <defs>
    <style>.a{fill:#707070;}</style>
  </defs>
  <g transform="translate(-141.906 -163.56)">
    <path class="a"
          d="M142.909,193.56a1.024,1.024,0,0,1-.71-.29,1,1,0,0,1,0-1.41l28-28.007a1,1,0,0,1,1.41,1.41l-28,28.007A.944.944,0,0,1,142.909,193.56Z"
          transform="translate(0 0)"/>
    <path class="a"
          d="M162.962,185.6a1.024,1.024,0,0,1-.71-.29l-20.043-20.045a1,1,0,0,1,1.41-1.41L163.662,183.9a1,1,0,0,1,0,1.41.96.96,0,0,1-.7.29Zm7.961,7.962a1.024,1.024,0,0,1-.71-.29l-4.471-4.471a1,1,0,1,1,1.41-1.41l4.471,4.471a1,1,0,0,1,0,1.41A.944.944,0,0,1,170.923,193.56Z"
          transform="translate(-0.01 0)"/>
  </g>
</svg>
