<svg width="46.264" height="25.648" xmlns="http://www.w3.org/2000/svg">
 <defs>
  <style>.a{fill:none;stroke:#707070;}</style>
 </defs>
 <g>
  <title>background</title>
  <rect x="-1" y="-1" width="48.264" height="27.648" id="canvas_background" fill="none"/>
 </g>
 <g>
  <title>Layer 1</title>
  <path class="a" d="m320.45499,263.59l-21.248,-21.247a1.734,1.734 0 0 1 2.452,-2.452l19.543,19.531l19.543,-19.531a1.734,1.734 0 0 1 2.452,2.452l-21.247,21.247a1.054,1.054 0 0 1 -1.5,0l0.005,0z" transform="rotate(180 281.2359924316406,-16.833999633789062) " id="svg_1"/>
  <defs>
   <style>.a{fill:none;stroke:#707070;}</style>
  </defs>
  <path transform="rotate(180 23.200153350830078,12.896133422851562) " class="a" d="m22.45315,24.83423l-21.248,-21.247a1.734,1.734 0 0 1 2.452,-2.452l19.543,19.531l19.543,-19.531a1.734,1.734 0 0 1 2.452,2.452l-21.247,21.247a1.054,1.054 0 0 1 -1.5,0l0.005,0z" id="svg_5" stroke="null"/>
 </g>
</svg>