<svg xmlns="http://www.w3.org/2000/svg" width="220" height="220" viewBox="0 0 220 220">
  <defs>
    <style>.a,.c{fill:none;}.a{stroke:#707070;}.b{stroke:none;}</style>
  </defs>
  <g transform="translate(-850 -613)">
    <g transform="translate(850 613)">
      <g class="a">
        <rect class="b" width="220" height="220" rx="35"/>
        <rect class="c" x="0.5" y="0.5" width="219" height="219" rx="34.5"/>
      </g>
    </g>
    <path class="a"
          d="M177.837,59.544l.074.042L238.081,94.3a5.234,5.234,0,0,1,2.618,4.454v69.493a5.232,5.232,0,0,1-2.551,4.493l-.067.039-60.171,34.711a5.232,5.232,0,0,1-5.155.042l-.074-.042-60.171-34.711a5.234,5.234,0,0,1-2.618-4.454V98.829a5.232,5.232,0,0,1,2.551-4.493l.067-.039,60.171-34.711a5.232,5.232,0,0,1,5.155-.042ZM175.3,71.668l-53.631,30.938v61.86L175.3,195.4l53.631-30.938V102.607L175.3,71.669Zm-27.469,40.367a1.308,1.308,0,0,1,1.308,1.308V163.05a1.308,1.308,0,0,1-1.308,1.308h-7.848a1.308,1.308,0,0,1-1.308-1.308V113.343a1.308,1.308,0,0,1,1.308-1.308h7.848Zm31.067,20.929a1.308,1.308,0,0,1,1.308,1.308V163.05a1.308,1.308,0,0,1-1.308,1.308h-7.848a1.308,1.308,0,0,1-1.308-1.308V134.272a1.308,1.308,0,0,1,1.308-1.308h7.848ZM210.614,122.5a1.308,1.308,0,0,1,1.308,1.308V163.05a1.308,1.308,0,0,1-1.308,1.308h-7.848a1.308,1.308,0,0,1-1.308-1.308V123.808a1.308,1.308,0,0,1,1.308-1.308h7.848Z"
          transform="translate(784.704 589.119)"/>
  </g>
</svg>
