<svg width="64" height="37.264" xmlns="http://www.w3.org/2000/svg">
 <defs>
  <style>.a{fill:none;stroke:#707070;}</style>
 </defs>
 <g>
  <title>background</title>
  <rect fill="none" id="canvas_background" height="39.264" width="66" y="-1" x="-1"/>
 </g>
 <g>
  <title>Layer 1</title>
  <path id="svg_1" transform="rotate(180 281.2359924316406,-16.833999633789062) " d="m320.45499,263.59l-21.248,-21.247a1.734,1.734 0 0 1 2.452,-2.452l19.543,19.531l19.543,-19.531a1.734,1.734 0 0 1 2.452,2.452l-21.247,21.247a1.054,1.054 0 0 1 -1.5,0l0.005,0z" class="a"/>
  <defs>
   <style>.a{fill:none;stroke:#707070;}</style>
  </defs>
  <g transform="rotate(90 32.39450836181641,18.84256172180176) " stroke="null" id="svg_6">
   <path transform="rotate(90 32.39450836181641,18.84255981445313) matrix(1.1733332872390747,0,0,1.1733332872390747,-51.66545155202584,-45.82966656421377) matrix(1.1733332872390747,0,0,1.1733332872390747,-5.832890032205455,-12.989883218576537) " stroke="null" id="svg_5" d="m65.28303,69.98504l-21.248,-21.247a1.734,1.734 0 0 1 2.452,-2.452l19.543,19.531l19.543,-19.531a1.734,1.734 0 0 1 2.452,2.452l-21.247,21.247a1.054,1.054 0 0 1 -1.5,0l0.005,0z" class="a"/>
  </g>
 </g>
</svg>