<svg xmlns="http://www.w3.org/2000/svg" width="45" height="43.782" viewBox="0 0 45 43.782">
    <defs>
        <style>.a{fill:none;}.b,.c{stroke:none;}.c{fill:#707070;}</style>
    </defs>
    <g transform="translate(-175.7 -184.8)">
        <g class="a" transform="translate(0)">
            <path class="b"
                  d="M201.746,185.844a20.337,20.337,0,0,1-22.1,29.967,21.442,21.442,0,1,0,22.1-29.967Zm-16.867,2.89h-2.623v-2.623a1.311,1.311,0,1,0-2.623,0v2.623h-2.623a1.311,1.311,0,0,0,0,2.623h2.623v2.623a1.311,1.311,0,0,0,2.623,0v-2.623h2.623a1.311,1.311,0,0,0,0-2.623Z"/>
            <path class="c"
                  d="M 180.9452819824219 185.8000030517578 C 180.7736206054688 185.8000030517578 180.6339569091797 185.9396667480469 180.6339569091797 186.111328125 L 180.6339569091797 188.7339782714844 L 180.6339569091797 189.7339782714844 L 179.6339569091797 189.7339782714844 L 177.0112762451172 189.7339782714844 C 176.8396148681641 189.7339782714844 176.699951171875 189.8736419677734 176.699951171875 190.0453033447266 C 176.699951171875 190.2169799804688 176.8396148681641 190.3566589355469 177.0112762451172 190.3566589355469 L 179.6339569091797 190.3566589355469 L 180.6339569091797 190.3566589355469 L 180.6339569091797 191.3566589355469 L 180.6339569091797 193.9793090820313 C 180.6339569091797 194.1509704589844 180.7736206054688 194.2906341552734 180.9452819824219 194.2906341552734 C 181.1169586181641 194.2906341552734 181.2566070556641 194.1509704589844 181.2566070556641 193.9793090820313 L 181.2566070556641 191.3566589355469 L 181.2566070556641 190.3566589355469 L 182.2566070556641 190.3566589355469 L 184.8792572021484 190.3566589355469 C 185.0509185791016 190.3566589355469 185.1905822753906 190.2169799804688 185.1905822753906 190.0453033447266 C 185.1905822753906 189.8736419677734 185.0509185791016 189.7339782714844 184.8792572021484 189.7339782714844 L 182.2566070556641 189.7339782714844 L 181.2566070556641 189.7339782714844 L 181.2566070556641 188.7339782714844 L 181.2566070556641 186.111328125 C 181.2566070556641 185.9396667480469 181.1169586181641 185.8000030517578 180.9452819824219 185.8000030517578 M 203.5379028320313 187.1505889892578 C 204.7924499511719 189.9150543212891 205.4488220214844 192.9262237548828 205.4488220214844 195.9663696289063 C 205.4488220214844 207.7327117919922 195.8762054443359 217.3053283691406 184.10986328125 217.3053283691406 C 183.2170104980469 217.3053283691406 182.3202972412109 217.2483215332031 181.4277648925781 217.1351928710938 C 183.0133209228516 219.9607391357422 185.2488708496094 222.373779296875 187.9732360839844 224.1833038330078 C 191.3210906982422 226.4069519042969 195.2229766845703 227.5823059082031 199.2570495605469 227.5823059082031 C 202.0171356201172 227.5823059082031 204.6941680908203 227.0419158935547 207.2138061523438 225.9761505126953 C 209.6479949951172 224.946533203125 211.8343658447266 223.4723358154297 213.7121734619141 221.5945434570313 C 215.5899810791016 219.7167358398438 217.0641784667969 217.5303802490234 218.0937957763672 215.09619140625 C 219.1595611572266 212.5765533447266 219.699951171875 209.8995056152344 219.699951171875 207.1394195556641 C 219.699951171875 202.0944061279297 217.8462677001953 197.2501068115234 214.4803466796875 193.4989013671875 C 211.5744018554688 190.2603302001953 207.7425231933594 188.048583984375 203.5379028320313 187.1505889892578 M 180.9452819824219 184.8000030517578 C 181.6678314208984 184.8000030517578 182.2566070556641 185.3887481689453 182.2566070556641 186.111328125 L 182.2566070556641 188.7339782714844 L 184.8792572021484 188.7339782714844 C 185.601806640625 188.7339782714844 186.1905822753906 189.3227386474609 186.1905822753906 190.0453033447266 C 186.1905822753906 190.7678680419922 185.601806640625 191.3566589355469 184.8792572021484 191.3566589355469 L 182.2566070556641 191.3566589355469 L 182.2566070556641 193.9793090820313 C 182.2566070556641 194.7018432617188 181.6678314208984 195.2906341552734 180.9452819824219 195.2906341552734 C 180.2227172851563 195.2906341552734 179.6339569091797 194.7018432617188 179.6339569091797 193.9793090820313 L 179.6339569091797 191.3566589355469 L 177.0112762451172 191.3566589355469 C 176.2887115478516 191.3566589355469 175.699951171875 190.7678680419922 175.699951171875 190.0453033447266 C 175.699951171875 189.3227386474609 176.2887115478516 188.7339782714844 177.0112762451172 188.7339782714844 L 179.6339569091797 188.7339782714844 L 179.6339569091797 186.111328125 C 179.6339569091797 185.3887481689453 180.2227172851563 184.8000030517578 180.9452819824219 184.8000030517578 Z M 201.7458801269531 185.8437194824219 C 212.4171295166016 187.0814361572266 220.699951171875 196.1403198242188 220.699951171875 207.1394195556641 C 220.699951171875 218.9815368652344 211.0991363525391 228.5823059082031 199.2570495605469 228.5823059082031 C 190.5059204101563 228.5823059082031 182.9791870117188 223.330322265625 179.6473236083984 215.8102416992188 C 181.0857696533203 216.1313629150391 182.5777435302734 216.3053283691406 184.10986328125 216.3053283691406 C 195.3431091308594 216.3053283691406 204.4488220214844 207.1996154785156 204.4488220214844 195.9663696289063 C 204.4488220214844 192.2799072265625 203.4586181640625 188.82763671875 201.7458801269531 185.8437194824219 Z"/>
        </g>
        <g class="a" transform="translate(-145.355 -232.647)">
            <path class="b"
                  d="M338.078,436.861h-1.9v-1.9a.956.956,0,0,0-1.912,0v1.9h-1.9a.956.956,0,0,0,0,1.912h1.9v1.9a.956.956,0,0,0,1.912,0v-1.9h1.9a.956.956,0,0,0,0-1.912Z"/>
            <path class="c"
                  d="M 335.2168273925781 434 C 335.7432861328125 434 336.1727600097656 434.4295043945313 336.1727600097656 434.9559326171875 L 336.1727600097656 436.8609008789063 L 338.0776977539063 436.8609008789063 C 338.6041564941406 436.8609008789063 339.0336303710938 437.2903442382813 339.0336303710938 437.8168334960938 C 339.0336303710938 438.34326171875 338.6041564941406 438.7727661132813 338.0776977539063 438.7727661132813 L 336.1727600097656 438.7727661132813 L 336.1727600097656 440.677734375 C 336.1727600097656 441.2041625976563 335.7432861328125 441.6336059570313 335.2168273925781 441.6336059570313 C 334.6903686523438 441.6336059570313 334.2608642578125 441.2041625976563 334.2608642578125 440.677734375 L 334.2608642578125 438.7727661132813 L 332.3559265136719 438.7727661132813 C 331.8294982910156 438.7727661132813 331.3999938964844 438.34326171875 331.3999938964844 437.8168334960938 C 331.3999938964844 437.2903442382813 331.8294982910156 436.8609008789063 332.3559265136719 436.8609008789063 L 334.2608642578125 436.8609008789063 L 334.2608642578125 434.9559326171875 C 334.2608642578125 434.4295043945313 334.6903686523438 434 335.2168273925781 434 Z"/>
        </g>
    </g>
</svg>
