<svg xmlns="http://www.w3.org/2000/svg" width="45" height="45" viewBox="0 0 45 45">
    <defs>
        <style>.a{fill:none;}.b,.c{stroke:none;}.c{fill:#fff;}</style>
    </defs>
    <g class="a" transform="translate(-113.2 -97.8)">
        <path class="b"
              d="M124.157,129.96l-2.822,2.822a1.332,1.332,0,0,0,1.883,1.883l2.822-2.822a1.332,1.332,0,0,0-1.883-1.883Zm-.809-20.113a1.343,1.343,0,0,0,1.9-1.9L122.4,105.1a1.343,1.343,0,0,0-1.9,1.9Zm-3.772,9.109h-4.031a1.344,1.344,0,0,0,0,2.688h4.031a1.344,1.344,0,0,0,0-2.687ZM135.7,105.519a1.34,1.34,0,0,0,1.344-1.344v-4.031a1.344,1.344,0,0,0-2.688,0v4.031A1.344,1.344,0,0,0,135.7,105.519Zm12.93,3.734,2.822-2.822a1.332,1.332,0,0,0-1.883-1.883l-2.822,2.822a1.332,1.332,0,0,0,1.883,1.883Zm7.226,9.7h-4.031a1.344,1.344,0,0,0,0,2.688h4.031a1.344,1.344,0,0,0,0-2.687Zm-7.8,11.8a1.343,1.343,0,1,0-1.9,1.9L149,135.5a1.343,1.343,0,1,0,1.9-1.9ZM135.7,108.2a12.1,12.1,0,1,0,12.1,12.1A12.1,12.1,0,0,0,135.7,108.2Zm0,26.88a1.34,1.34,0,0,0-1.344,1.344v4.031a1.344,1.344,0,0,0,2.688,0v-4.031A1.344,1.344,0,0,0,135.7,135.081Z"/>
        <path class="c"
              d="M 135.7000122070313 141.8000030517578 C 136.4447479248047 141.8000030517578 137.0437774658203 141.2009887695313 137.0437774658203 140.4562530517578 L 137.0437774658203 136.4250030517578 C 137.0437774658203 135.6856689453125 136.4447479248047 135.0812530517578 135.7000122070313 135.0812530517578 C 134.9552917480469 135.0812530517578 134.3562622070313 135.6802825927734 134.3562622070313 136.4250030517578 L 134.3562622070313 140.4562530517578 C 134.3562622070313 141.2009887695313 134.9552917480469 141.8000030517578 135.7000122070313 141.8000030517578 M 149.9524078369141 135.8947906494141 C 150.2964477539063 135.8947906494141 150.6404724121094 135.7639312744141 150.9022064208984 135.502197265625 C 151.4256744384766 134.9787139892578 151.4256744384766 134.1260528564453 150.9022064208984 133.6026000976563 L 148.0528106689453 130.7531890869141 C 147.7910766601563 130.491455078125 147.4470520019531 130.360595703125 147.1030120849609 130.360595703125 C 146.7589721679688 130.360595703125 146.4149475097656 130.491455078125 146.1532135009766 130.7531890869141 C 145.6297302246094 131.2766723632813 145.6297302246094 132.1293182373047 146.1532135009766 132.6527862548828 L 149.0026092529297 135.502197265625 C 149.2643432617188 135.7639312744141 149.6083831787109 135.8947906494141 149.9524078369141 135.8947906494141 M 122.2760162353516 135.0542755126953 C 122.6173553466797 135.0542755126953 122.9586868286133 134.9247589111328 123.2177200317383 134.6657104492188 L 126.0401458740234 131.8432922363281 C 126.5582122802734 131.3252410888672 126.5582122802734 130.4779663085938 126.0401458740234 129.9598846435547 C 125.7811050415039 129.7008514404297 125.4397659301758 129.5713348388672 125.0984344482422 129.5713348388672 C 124.7571029663086 129.5713348388672 124.4157638549805 129.7008514404297 124.1567306518555 129.9598846435547 L 121.3343124389648 132.7823028564453 C 120.8162384033203 133.3003692626953 120.8162384033203 134.1476593017578 121.3343124389648 134.6657104492188 C 121.5933456420898 134.9247589111328 121.934684753418 135.0542755126953 122.2760162353516 135.0542755126953 M 135.7000122070313 132.4099426269531 C 142.3863983154297 132.4099426269531 147.8045654296875 126.9917755126953 147.8045654296875 120.3053894042969 C 147.8045654296875 113.6190338134766 142.3863983154297 108.2008666992188 135.7000122070313 108.2008666992188 C 129.0136413574219 108.2008666992188 123.5954742431641 113.619026184082 123.5954742431641 120.3053894042969 C 123.5954742431641 126.9917755126953 129.0136413574219 132.4099426269531 135.7000122070313 132.4099426269531 M 155.8562622070313 121.6437530517578 C 156.6009979248047 121.6437530517578 157.2000122070313 121.0447311401367 157.2000122070313 120.3000030517578 C 157.2000122070313 119.560676574707 156.6009979248047 118.9562530517578 155.8562622070313 118.9562530517578 L 151.8250122070313 118.9562530517578 C 151.0802917480469 118.9562530517578 150.4812622070313 119.5552749633789 150.4812622070313 120.3000030517578 C 150.4812622070313 121.0447311401367 151.0802917480469 121.6437530517578 151.8250122070313 121.6437530517578 L 155.8562622070313 121.6437530517578 M 119.5750350952148 121.6437530517578 C 120.3197555541992 121.6437530517578 120.9187850952148 121.0447311401367 120.9187850952148 120.3000030517578 C 120.9187850952148 119.560676574707 120.3143539428711 118.9562530517578 119.5750350952148 118.9562530517578 L 115.5437698364258 118.9562530517578 C 114.7990493774414 118.9562530517578 114.2000198364258 119.5552749633789 114.2000198364258 120.3000030517578 C 114.2000198364258 121.0447311401367 114.804443359375 121.6437530517578 115.5437698364258 121.6437530517578 L 119.5750350952148 121.6437530517578 M 124.2970352172852 110.2394180297852 C 124.6410675048828 110.2394180297852 124.9850997924805 110.1085510253906 125.2468338012695 109.846809387207 C 125.7703094482422 109.323356628418 125.7703094482422 108.4706954956055 125.2468338012695 107.9472122192383 L 122.3974456787109 105.0978164672852 C 122.1357040405273 104.8360824584961 121.7916717529297 104.7052154541016 121.4476470947266 104.7052154541016 C 121.1036148071289 104.7052154541016 120.7595825195313 104.8360824584961 120.4978485107422 105.0978164672852 C 119.9743728637695 105.6212844848633 119.9743728637695 106.4739532470703 120.4978485107422 106.9974136352539 L 123.3472442626953 109.846809387207 C 123.6089782714844 110.1085510253906 123.953010559082 110.2394180297852 124.2970352172852 110.2394180297852 M 147.6885375976563 109.6457901000977 C 148.0298767089844 109.6457901000977 148.3712005615234 109.5149230957031 148.6302337646484 109.2531967163086 L 151.4526519775391 106.4307861328125 C 151.9707336425781 105.9126968383789 151.9707336425781 105.0654296875 151.4526519775391 104.5473709106445 C 151.1936187744141 104.288330078125 150.8522796630859 104.1588134765625 150.5109405517578 104.1588134765625 C 150.1696166992188 104.1588134765625 149.8282775878906 104.288330078125 149.5692443847656 104.5473709106445 L 146.746826171875 107.3697738647461 C 146.2287750244141 107.8878555297852 146.2287750244141 108.7351150512695 146.746826171875 109.2531967163086 C 147.005859375 109.5149230957031 147.3471984863281 109.6457901000977 147.6885375976563 109.6457901000977 M 135.7000122070313 105.5187530517578 C 136.4447479248047 105.5187530517578 137.0437774658203 104.9197311401367 137.0437774658203 104.1750030517578 L 137.0437774658203 100.1437530517578 C 137.0437774658203 99.39902496337891 136.4447479248047 98.80000305175781 135.7000122070313 98.80000305175781 C 134.9552917480469 98.80000305175781 134.3562622070313 99.39902496337891 134.3562622070313 100.1437530517578 L 134.3562622070313 104.1750030517578 C 134.3562622070313 104.9197311401367 134.960693359375 105.5187530517578 135.7000122070313 105.5187530517578 M 135.7000122070313 142.8000030517578 C 134.4076690673828 142.8000030517578 133.3562622070313 141.7485961914063 133.3562622070313 140.4562530517578 L 133.3562622070313 136.4250030517578 C 133.3562622070313 135.1326599121094 134.4076690673828 134.0812530517578 135.7000122070313 134.0812530517578 C 136.9923706054688 134.0812530517578 138.0437774658203 135.1326599121094 138.0437774658203 136.4250030517578 L 138.0437774658203 140.4562530517578 C 138.0437774658203 141.7485961914063 136.9923706054688 142.8000030517578 135.7000122070313 142.8000030517578 Z M 149.9524078369141 136.8947906494141 C 149.3259887695313 136.8947906494141 148.737548828125 136.6513366699219 148.2955017089844 136.2093048095703 L 145.4461059570313 133.3598937988281 C 145.0040588378906 132.9178466796875 144.7606048583984 132.3294219970703 144.7606048583984 131.7029876708984 C 144.7606048583984 131.0765686035156 145.0040588378906 130.4881439208984 145.4461059570313 130.0460815429688 C 145.8881683349609 129.6040344238281 146.4766082763672 129.360595703125 147.1030120849609 129.360595703125 C 147.7294464111328 129.360595703125 148.31787109375 129.6040496826172 148.7599182128906 130.0460815429688 L 151.6093139648438 132.8955078125 C 152.0513458251953 133.3375244140625 152.2947998046875 133.9259490966797 152.2947998046875 134.5523834228516 C 152.2947998046875 135.1788024902344 152.0513610839844 135.7672424316406 151.6093139648438 136.2092895507813 C 151.1672821044922 136.6513366699219 150.578857421875 136.8947906494141 149.9524078369141 136.8947906494141 Z M 122.2760238647461 136.0542755126953 C 121.652214050293 136.0542755126953 121.066650390625 135.812255859375 120.6272048950195 135.3728179931641 C 120.1877746582031 134.9334106445313 119.9457626342773 134.3478393554688 119.9457626342773 133.7240142822266 C 119.9457626342773 133.1001892089844 120.1877746582031 132.5146331787109 120.6272048950195 132.0751953125 L 123.4496231079102 129.2527770996094 C 123.8890686035156 128.8133392333984 124.4746322631836 128.5713500976563 125.0984344482422 128.5713500976563 C 125.2576217651367 128.5713500976563 125.4142990112305 128.5870971679688 125.5667114257813 128.6178741455078 C 123.6422653198242 126.2803192138672 122.5954742431641 123.3734130859375 122.5954742431641 120.3053894042969 C 122.5954742431641 116.8044509887695 123.9584197998047 113.5134506225586 126.4332427978516 111.0386352539063 C 128.9080657958984 108.5638122558594 132.1990661621094 107.2008666992188 135.7000122070313 107.2008666992188 C 139.2009582519531 107.2008666992188 142.4919586181641 108.5638122558594 144.966796875 111.0386352539063 C 147.4416046142578 113.5134658813477 148.8045654296875 116.8044509887695 148.8045654296875 120.3053894042969 C 148.8045654296875 123.8063354492188 147.4416046142578 127.0973434448242 144.966796875 129.5721588134766 C 142.4919586181641 132.0469970703125 139.2009582519531 133.4099426269531 135.7000122070313 133.4099426269531 C 132.629638671875 133.4099426269531 129.7208709716797 132.3617401123047 127.3823852539063 130.4344635009766 C 127.4130096435547 130.5865020751953 127.4286956787109 130.7428283691406 127.4286956787109 130.9015960693359 C 127.4286956787109 131.5254211425781 127.1866836547852 132.1109771728516 126.7472305297852 132.5504150390625 L 123.9248352050781 135.3728179931641 C 123.4854125976563 135.812255859375 122.8998413085938 136.0542755126953 122.2760238647461 136.0542755126953 Z M 155.8562622070313 122.6437530517578 L 151.8250122070313 122.6437530517578 C 150.5326690673828 122.6437530517578 149.4812622070313 121.5923538208008 149.4812622070313 120.3000030517578 C 149.4812622070313 119.0076522827148 150.5326690673828 117.9562530517578 151.8250122070313 117.9562530517578 L 155.8562622070313 117.9562530517578 C 157.1486053466797 117.9562530517578 158.2000122070313 119.0076522827148 158.2000122070313 120.3000030517578 C 158.2000122070313 121.5923538208008 157.1486053466797 122.6437530517578 155.8562622070313 122.6437530517578 Z M 119.5750350952148 122.6437530517578 L 115.5437698364258 122.6437530517578 C 114.2514190673828 122.6437530517578 113.2000198364258 121.5923538208008 113.2000198364258 120.3000030517578 C 113.2000198364258 119.0076522827148 114.2514190673828 117.9562530517578 115.5437698364258 117.9562530517578 L 119.5750350952148 117.9562530517578 C 120.8673858642578 117.9562530517578 121.9187850952148 119.0076522827148 121.9187850952148 120.3000030517578 C 121.9187850952148 121.5923538208008 120.8673858642578 122.6437530517578 119.5750350952148 122.6437530517578 Z M 124.2970428466797 111.2394104003906 C 123.6706085205078 111.2394104003906 123.0821838378906 110.995964050293 122.6401290893555 110.5539245605469 L 119.7907409667969 107.7045211791992 C 119.3486938476563 107.2624816894531 119.1052398681641 106.6740493774414 119.1052398681641 106.0476150512695 C 119.1052398681641 105.4211807250977 119.3486938476563 104.8327560424805 119.7907485961914 104.3907012939453 C 120.232780456543 103.9486618041992 120.8212127685547 103.7052230834961 121.447639465332 103.7052230834961 C 122.0740737915039 103.7052230834961 122.6625137329102 103.9486618041992 123.1045532226563 104.3907012939453 L 125.9539413452148 107.240104675293 C 126.3959884643555 107.6821594238281 126.6394424438477 108.2705917358398 126.6394424438477 108.8970260620117 C 126.6394424438477 109.5234527587891 126.3959884643555 110.1118850708008 125.9539184570313 110.5539321899414 C 125.5119094848633 110.995964050293 124.9234848022461 111.2394104003906 124.2970428466797 111.2394104003906 Z M 147.6885375976563 110.6457901000977 C 147.0644836425781 110.6457901000977 146.4791259765625 110.4023742675781 146.0396881103516 109.9602813720703 L 146.0396881103516 109.9602813720703 C 145.1305999755859 109.0511322021484 145.1305999755859 107.5718307495117 146.0396881103516 106.6626815795898 L 148.8621368408203 103.8402633666992 C 149.3015747070313 103.4008255004883 149.8871459960938 103.1588134765625 150.5109558105469 103.1588134765625 C 151.134765625 103.1588134765625 151.7203063964844 103.4008255004883 152.1597595214844 103.8402633666992 C 152.5991973876953 104.2796859741211 152.8412170410156 104.8652420043945 152.8412170410156 105.4890594482422 C 152.8412170410156 106.1128692626953 152.5991973876953 106.6984329223633 152.1597595214844 107.1378860473633 L 149.3387603759766 109.9588851928711 C 148.8991851806641 110.4018630981445 148.3132476806641 110.6457901000977 147.6885375976563 110.6457901000977 Z M 135.7000122070313 106.5187530517578 C 134.4076690673828 106.5187530517578 133.3562622070313 105.4673538208008 133.3562622070313 104.1750030517578 L 133.3562622070313 100.1437530517578 C 133.3562622070313 98.85140228271484 134.4076690673828 97.80000305175781 135.7000122070313 97.80000305175781 C 136.9923706054688 97.80000305175781 138.0437774658203 98.85140228271484 138.0437774658203 100.1437530517578 L 138.0437774658203 104.1750030517578 C 138.0437774658203 105.4673538208008 136.9923706054688 106.5187530517578 135.7000122070313 106.5187530517578 Z"/>
    </g>
</svg>
