<?xml version="1.0" standalone="no"?>
<!DOCTYPE svg PUBLIC "-//W3C//DTD SVG 20010904//EN"
 "http://www.w3.org/TR/2001/REC-SVG-20010904/DTD/svg10.dtd">
<svg version="1.0" xmlns="http://www.w3.org/2000/svg"
 width="512.000000pt" height="512.000000pt" viewBox="0 0 512.000000 512.000000"
 preserveAspectRatio="xMidYMid meet">

<g transform="translate(0.000000,512.000000) scale(0.100000,-0.100000)"
fill="#000000" stroke="none">
<path d="M2524 4788 c-12 -5 -27 -21 -33 -34 -15 -34 -15 -355 0 -388 26 -55
112 -55 138 0 15 33 15 354 0 387 -11 24 -48 48 -72 46 -7 0 -22 -5 -33 -11z"/>
<path d="M1000 4157 c-39 -20 -54 -59 -37 -99 19 -44 245 -264 280 -273 51
-13 105 42 92 93 -8 34 -230 260 -272 278 -39 17 -32 17 -63 1z"/>
<path d="M4055 4156 c-41 -19 -262 -245 -270 -278 -13 -51 41 -106 92 -93 35
8 260 229 279 272 30 69 -32 129 -101 99z"/>
<path d="M2430 3994 c-264 -34 -490 -119 -691 -259 -108 -76 -278 -246 -354
-354 -172 -247 -258 -517 -259 -816 -2 -485 230 -919 642 -1199 357 -242 813
-307 1227 -175 429 138 799 508 933 935 51 161 66 261 66 434 0 393 -142 729
-428 1015 -209 208 -452 339 -736 396 -92 19 -328 32 -400 23z m395 -181 c377
-73 708 -327 883 -678 47 -95 83 -200 108 -315 26 -120 26 -400 0 -520 -54
-249 -159 -450 -326 -624 -215 -225 -472 -351 -797 -391 l-53 -7 0 1282 0
1282 53 -7 c28 -3 88 -13 132 -22z m-1040 -473 c-252 -252 -461 -457 -463
-455 -8 8 51 171 90 250 61 122 124 211 218 309 104 109 207 187 330 251 89
46 238 103 270 104 8 1 -192 -206 -445 -459z m103 -377 l-593 -593 -7 37 c-4
21 -7 74 -7 118 l-1 80 598 598 597 597 3 -122 3 -122 -593 -593z m55 -425
c-435 -436 -539 -534 -547 -521 -17 30 -56 137 -56 152 0 9 255 271 568 584
l567 567 3 -122 3 -122 -538 -538z m95 -386 l-443 -443 -28 33 c-15 18 -40 50
-54 71 l-27 38 495 495 494 494 3 -122 3 -122 -443 -444z m130 -349 c-172
-172 -316 -313 -319 -313 -3 0 -36 23 -74 51 l-67 51 383 384 384 384 3 -122
3 -122 -313 -313z m165 -315 c-81 -81 -155 -148 -164 -148 -9 0 -50 13 -90 30
-41 16 -76 30 -79 30 -3 0 103 108 235 240 l240 240 3 -122 3 -122 -148 -148z
m144 -205 c-3 -2 -28 -1 -57 3 l-52 7 54 54 53 54 3 -57 c2 -31 1 -58 -1 -61z"/>
<path d="M363 2628 c-12 -6 -27 -23 -34 -39 -15 -37 2 -82 37 -98 34 -15 354
-15 388 0 55 26 55 112 0 138 -32 14 -361 14 -391 -1z"/>
<path d="M4363 2628 c-12 -6 -27 -23 -34 -39 -15 -37 2 -82 37 -98 34 -15 354
-15 388 0 55 26 55 112 0 138 -32 14 -361 14 -391 -1z"/>
<path d="M1215 1321 c-47 -30 -243 -233 -255 -264 -21 -59 38 -118 97 -97 32
13 247 222 269 262 20 39 18 56 -15 89 -34 34 -55 36 -96 10z"/>
<path d="M3809 1311 c-33 -33 -35 -50 -15 -89 22 -40 237 -249 269 -262 59
-21 118 38 97 97 -13 32 -222 247 -262 269 -39 20 -56 18 -89 -15z"/>
<path d="M2524 788 c-38 -18 -44 -51 -44 -228 0 -185 6 -212 51 -231 37 -15
82 2 98 37 15 33 15 354 0 387 -11 24 -48 48 -72 46 -7 0 -22 -5 -33 -11z"/>
</g>
</svg>
