<?xml version="1.0" standalone="no"?>
<!DOCTYPE svg PUBLIC "-//W3C//DTD SVG 20010904//EN"
 "http://www.w3.org/TR/2001/REC-SVG-20010904/DTD/svg10.dtd">
<svg version="1.0" xmlns="http://www.w3.org/2000/svg"
 width="90.000000pt" height="88.000000pt" viewBox="0 0 90.000000 88.000000"
 preserveAspectRatio="xMidYMid meet">

<g transform="translate(0.000000,88.000000) scale(0.100000,-0.100000)"
fill="#000000" stroke="none">
<path d="M92 868 c-7 -7 -12 -25 -12 -40 0 -24 -4 -28 -28 -28 -15 0 -33 -5
-40 -12 -17 -17 4 -38 39 -38 25 0 29 -4 29 -28 0 -15 5 -33 12 -40 17 -17 38
4 38 39 0 25 4 29 29 29 35 0 56 21 39 38 -7 7 -25 12 -40 12 -24 0 -28 4 -28
29 0 35 -21 56 -38 39z m18 -43 c0 -34 1 -35 40 -35 22 0 40 -4 40 -10 0 -5
-18 -10 -40 -10 l-40 0 0 -41 c0 -24 -4 -38 -10 -34 -5 3 -10 22 -10 41 0 32
-2 34 -35 34 -19 0 -35 5 -35 10 0 6 16 10 35 10 33 0 35 2 35 35 0 19 5 35
10 35 6 0 10 -16 10 -35z"/>
<path d="M551 800 c76 -200 -16 -422 -211 -514 -54 -25 -80 -31 -157 -34 l-93
-4 22 -40 c33 -59 110 -125 186 -161 62 -30 75 -32 172 -32 97 0 110 2 173 32
175 83 276 266 247 448 -14 88 -70 194 -131 249 -55 50 -134 91 -191 101 l-37
7 20 -52z m106 0 c75 -37 155 -120 191 -197 24 -52 27 -70 27 -168 0 -104 -2
-114 -32 -176 -36 -72 -104 -147 -167 -184 -109 -64 -257 -70 -372 -16 -68 32
-156 107 -181 155 -15 28 -15 29 11 22 14 -3 56 -2 94 4 246 38 409 281 348
518 -9 35 -16 66 -16 68 0 12 44 0 97 -26z"/>
<path d="M270 516 c0 -19 -6 -25 -27 -28 -39 -4 -42 -28 -4 -28 28 0 31 -3 31
-31 0 -38 24 -35 28 4 2 19 10 27 28 29 32 4 32 22 -1 26 -19 3 -25 9 -25 28
0 15 -6 24 -15 24 -9 0 -15 -9 -15 -24z"/>
</g>
</svg>
